<svg width="185" height="174" viewBox="0 0 485 474" fill="none" xmlns="http://www.w3.org/2000/svg">
<ellipse cx="241.5" cy="237" rx="241.5" ry="237" fill="#071B52"/>
<path d="M57.004 165C56.596 165 56.26 164.868 55.996 164.604C55.732 164.34 55.6 164.004 55.6 163.596V138.288C55.6 137.88 55.732 137.544 55.996 137.28C56.26 137.016 56.596 136.884 57.004 136.884H73.888C74.272 136.884 74.596 137.016 74.86 137.28C75.148 137.52 75.292 137.844 75.292 138.252C75.292 138.612 75.148 138.924 74.86 139.188C74.596 139.452 74.272 139.584 73.888 139.584H58.408V149.52H69.676C70.084 149.52 70.42 149.652 70.684 149.916C70.948 150.18 71.08 150.504 71.08 150.888C71.08 151.272 70.948 151.596 70.684 151.86C70.42 152.124 70.084 152.256 69.676 152.256H58.408V162.3H73.888C74.272 162.3 74.596 162.432 74.86 162.696C75.148 162.96 75.292 163.272 75.292 163.632C75.292 164.04 75.148 164.376 74.86 164.64C74.596 164.88 74.272 165 73.888 165H57.004ZM81.5338 165C80.6218 165 80.1658 164.544 80.1658 163.632V146.676C80.1658 145.764 80.6218 145.308 81.5338 145.308C82.4458 145.308 82.9018 145.764 82.9018 146.676V148.224C83.6218 147.264 84.5098 146.508 85.5658 145.956C86.6218 145.38 87.7858 145.092 89.0578 145.092C90.1618 145.092 91.0138 145.248 91.6138 145.56C92.2138 145.872 92.4418 146.328 92.2978 146.928C92.1778 147.48 91.8898 147.768 91.4338 147.792C91.0018 147.792 90.4858 147.768 89.8858 147.72C88.5418 147.6 87.3418 147.744 86.2858 148.152C85.2538 148.536 84.4258 149.136 83.8018 149.952C83.2018 150.768 82.9018 151.74 82.9018 152.868V163.632C82.9018 164.544 82.4458 165 81.5338 165ZM98.6341 165C98.2021 165 97.8541 164.88 97.5901 164.64C97.3501 164.376 97.2301 164.028 97.2301 163.596V146.712C97.2301 146.28 97.3501 145.944 97.5901 145.704C97.8541 145.44 98.2021 145.308 98.6341 145.308C99.0421 145.308 99.3661 145.44 99.6061 145.704C99.8701 145.944 100.002 146.28 100.002 146.712V163.596C100.002 164.028 99.8701 164.376 99.6061 164.64C99.3661 164.88 99.0421 165 98.6341 165ZM98.5981 141.564C98.0701 141.564 97.6141 141.372 97.2301 140.988C96.8461 140.604 96.6541 140.136 96.6541 139.584C96.6541 138.984 96.8461 138.516 97.2301 138.18C97.6381 137.82 98.1061 137.64 98.6341 137.64C99.1381 137.64 99.5821 137.82 99.9661 138.18C100.374 138.516 100.578 138.984 100.578 139.584C100.578 140.136 100.386 140.604 100.002 140.988C99.6181 141.372 99.1501 141.564 98.5981 141.564ZM115.844 165.18C113.948 165.18 112.256 164.748 110.768 163.884C109.304 162.996 108.14 161.796 107.276 160.284C106.436 158.772 106.016 157.068 106.016 155.172C106.016 153.252 106.424 151.536 107.24 150.024C108.056 148.512 109.172 147.324 110.588 146.46C112.004 145.572 113.636 145.128 115.484 145.128C118.484 145.128 120.92 146.28 122.792 148.584C123.056 148.872 123.152 149.184 123.08 149.52C123.008 149.832 122.804 150.108 122.468 150.348C122.204 150.54 121.904 150.612 121.568 150.564C121.256 150.492 120.98 150.312 120.74 150.024C119.348 148.44 117.596 147.648 115.484 147.648C114.14 147.648 112.952 147.972 111.92 148.62C110.912 149.268 110.12 150.156 109.544 151.284C108.992 152.412 108.716 153.708 108.716 155.172C108.716 156.612 109.016 157.896 109.616 159.024C110.216 160.152 111.056 161.04 112.136 161.688C113.216 162.336 114.452 162.66 115.844 162.66C117.764 162.66 119.312 162.144 120.488 161.112C120.776 160.872 121.076 160.74 121.388 160.716C121.7 160.692 121.988 160.788 122.252 161.004C122.54 161.268 122.696 161.568 122.72 161.904C122.768 162.24 122.66 162.528 122.396 162.768C120.644 164.376 118.46 165.18 115.844 165.18ZM129.874 165C129.466 165 129.13 164.88 128.866 164.64C128.626 164.376 128.506 164.04 128.506 163.632V138.252C128.506 137.844 128.626 137.52 128.866 137.28C129.13 137.016 129.466 136.884 129.874 136.884C130.282 136.884 130.606 137.016 130.846 137.28C131.11 137.52 131.242 137.844 131.242 138.252V154.632L141.394 145.452C142.018 144.9 142.606 144.924 143.158 145.524C143.422 145.812 143.542 146.124 143.518 146.46C143.518 146.772 143.374 147.048 143.086 147.288L135.886 153.804L143.374 163.02C143.902 163.668 143.842 164.268 143.194 164.82C142.882 165.084 142.558 165.192 142.222 165.144C141.886 165.12 141.598 164.952 141.358 164.64L133.942 155.532L131.242 158.016V163.632C131.242 164.04 131.11 164.376 130.846 164.64C130.606 164.88 130.282 165 129.874 165ZM172.65 165.36C170.706 165.36 168.882 164.988 167.178 164.244C165.498 163.5 164.01 162.468 162.714 161.148C161.442 159.804 160.446 158.268 159.726 156.54C159.006 154.788 158.646 152.916 158.646 150.924C158.646 148.956 158.994 147.108 159.69 145.38C160.41 143.628 161.406 142.092 162.678 140.772C163.974 139.452 165.462 138.42 167.142 137.676C168.846 136.908 170.682 136.524 172.65 136.524C174.378 136.524 175.95 136.776 177.366 137.28C178.782 137.784 180.15 138.588 181.47 139.692C181.782 139.932 181.914 140.244 181.866 140.628C181.818 140.988 181.638 141.24 181.326 141.384C181.254 141.672 181.026 141.864 180.642 141.96C180.282 142.032 179.922 141.912 179.562 141.6C178.626 140.784 177.606 140.184 176.502 139.8C175.398 139.392 174.114 139.188 172.65 139.188C171.09 139.188 169.626 139.5 168.258 140.124C166.914 140.748 165.726 141.6 164.694 142.68C163.662 143.76 162.846 145.008 162.246 146.424C161.67 147.84 161.382 149.34 161.382 150.924C161.382 152.556 161.67 154.08 162.246 155.496C162.846 156.912 163.662 158.16 164.694 159.24C165.726 160.32 166.914 161.172 168.258 161.796C169.626 162.396 171.09 162.696 172.65 162.696C175.002 162.696 177.162 162.012 179.13 160.644V153.444H173.514C173.106 153.444 172.77 153.324 172.506 153.084C172.242 152.844 172.11 152.544 172.11 152.184C172.11 151.824 172.242 151.536 172.506 151.32C172.77 151.08 173.106 150.96 173.514 150.96H180.462C180.87 150.96 181.206 151.092 181.47 151.356C181.734 151.596 181.866 151.92 181.866 152.328V161.256C181.866 161.448 181.842 161.628 181.794 161.796C181.746 161.94 181.638 162.096 181.47 162.264C180.246 163.392 178.878 164.196 177.366 164.676C175.854 165.132 174.282 165.36 172.65 165.36ZM188.076 165.576C187.5 165.576 187.008 165.372 186.6 164.964C186.192 164.556 185.988 164.064 185.988 163.488C185.988 162.888 186.192 162.384 186.6 161.976C187.032 161.568 187.524 161.364 188.076 161.364C188.652 161.364 189.144 161.58 189.552 162.012C189.96 162.42 190.164 162.912 190.164 163.488C190.164 164.04 189.96 164.532 189.552 164.964C189.168 165.372 188.676 165.576 188.076 165.576ZM207.508 165C207.1 165 206.764 164.868 206.5 164.604C206.236 164.34 206.104 164.004 206.104 163.596V138.288C206.104 137.88 206.236 137.544 206.5 137.28C206.764 137.016 207.1 136.884 207.508 136.884H214.24C215.992 136.884 217.552 137.256 218.92 138C220.288 138.72 221.356 139.74 222.124 141.06C222.916 142.356 223.312 143.856 223.312 145.56C223.312 147.432 222.808 149.064 221.8 150.456C220.792 151.824 219.448 152.796 217.768 153.372L223.672 162.84C224.032 163.416 224.092 163.92 223.852 164.352C223.636 164.784 223.204 165 222.556 165C222.244 165 221.992 164.94 221.8 164.82C221.632 164.7 221.476 164.52 221.332 164.28L214.852 153.948C214.66 153.972 214.456 153.984 214.24 153.984H208.912V163.596C208.912 164.004 208.78 164.34 208.516 164.604C208.252 164.868 207.916 165 207.508 165ZM208.912 151.284H214.24C215.464 151.284 216.544 151.044 217.48 150.564C218.44 150.06 219.196 149.376 219.748 148.512C220.3 147.648 220.576 146.664 220.576 145.56C220.576 144.384 220.3 143.352 219.748 142.464C219.196 141.552 218.44 140.844 217.48 140.34C216.544 139.836 215.464 139.584 214.24 139.584H208.912V151.284ZM236.962 165.18C235.042 165.18 233.326 164.748 231.814 163.884C230.302 163.02 229.114 161.832 228.25 160.32C227.386 158.808 226.954 157.092 226.954 155.172C226.954 153.228 227.386 151.5 228.25 149.988C229.114 148.476 230.302 147.288 231.814 146.424C233.326 145.56 235.042 145.128 236.962 145.128C238.882 145.128 240.586 145.56 242.074 146.424C243.586 147.288 244.774 148.476 245.638 149.988C246.502 151.5 246.946 153.228 246.97 155.172C246.97 157.092 246.526 158.808 245.638 160.32C244.774 161.832 243.586 163.02 242.074 163.884C240.586 164.748 238.882 165.18 236.962 165.18ZM236.962 162.66C238.354 162.66 239.602 162.336 240.706 161.688C241.81 161.04 242.674 160.152 243.298 159.024C243.922 157.896 244.234 156.612 244.234 155.172C244.234 153.732 243.922 152.448 243.298 151.32C242.674 150.168 241.81 149.268 240.706 148.62C239.602 147.972 238.354 147.648 236.962 147.648C235.57 147.648 234.322 147.972 233.218 148.62C232.114 149.268 231.238 150.168 230.59 151.32C229.966 152.448 229.654 153.732 229.654 155.172C229.654 156.612 229.966 157.896 230.59 159.024C231.238 160.152 232.114 161.04 233.218 161.688C234.322 162.336 235.57 162.66 236.962 162.66ZM261.325 165.18C259.429 165.18 257.725 164.748 256.213 163.884C254.701 162.996 253.501 161.796 252.613 160.284C251.749 158.772 251.317 157.056 251.317 155.136C251.317 153.24 251.737 151.536 252.577 150.024C253.441 148.512 254.605 147.324 256.069 146.46C257.533 145.572 259.189 145.128 261.037 145.128C262.645 145.128 264.097 145.476 265.393 146.172C266.689 146.844 267.733 147.744 268.525 148.872V138.288C268.525 137.856 268.657 137.52 268.921 137.28C269.185 137.016 269.521 136.884 269.929 136.884C270.337 136.884 270.673 137.016 270.937 137.28C271.201 137.52 271.333 137.856 271.333 138.288V155.28C271.285 157.152 270.817 158.844 269.929 160.356C269.065 161.844 267.877 163.02 266.365 163.884C264.877 164.748 263.197 165.18 261.325 165.18ZM261.325 162.66C262.717 162.66 263.953 162.336 265.033 161.688C266.137 161.016 267.001 160.116 267.625 158.988C268.273 157.86 268.597 156.576 268.597 155.136C268.597 153.72 268.273 152.448 267.625 151.32C267.001 150.168 266.137 149.268 265.033 148.62C263.953 147.972 262.717 147.648 261.325 147.648C259.957 147.648 258.721 147.972 257.617 148.62C256.513 149.268 255.637 150.168 254.989 151.32C254.341 152.448 254.017 153.72 254.017 155.136C254.017 156.576 254.341 157.86 254.989 158.988C255.637 160.116 256.513 161.016 257.617 161.688C258.721 162.336 259.957 162.66 261.325 162.66ZM279.182 165C278.27 165 277.814 164.544 277.814 163.632V146.676C277.814 145.764 278.27 145.308 279.182 145.308C280.094 145.308 280.55 145.764 280.55 146.676V148.224C281.27 147.264 282.158 146.508 283.214 145.956C284.27 145.38 285.434 145.092 286.706 145.092C287.81 145.092 288.662 145.248 289.262 145.56C289.862 145.872 290.09 146.328 289.946 146.928C289.826 147.48 289.538 147.768 289.082 147.792C288.65 147.792 288.134 147.768 287.534 147.72C286.19 147.6 284.99 147.744 283.934 148.152C282.902 148.536 282.074 149.136 281.45 149.952C280.85 150.768 280.55 151.74 280.55 152.868V163.632C280.55 164.544 280.094 165 279.182 165ZM296.283 165C295.851 165 295.503 164.88 295.239 164.64C294.999 164.376 294.879 164.028 294.879 163.596V146.712C294.879 146.28 294.999 145.944 295.239 145.704C295.503 145.44 295.851 145.308 296.283 145.308C296.691 145.308 297.015 145.44 297.255 145.704C297.519 145.944 297.651 146.28 297.651 146.712V163.596C297.651 164.028 297.519 164.376 297.255 164.64C297.015 164.88 296.691 165 296.283 165ZM296.247 141.564C295.719 141.564 295.263 141.372 294.879 140.988C294.495 140.604 294.303 140.136 294.303 139.584C294.303 138.984 294.495 138.516 294.879 138.18C295.287 137.82 295.755 137.64 296.283 137.64C296.787 137.64 297.231 137.82 297.615 138.18C298.023 138.516 298.227 138.984 298.227 139.584C298.227 140.136 298.035 140.604 297.651 140.988C297.267 141.372 296.799 141.564 296.247 141.564ZM313.385 165.18C311.489 165.18 309.809 164.76 308.345 163.92C306.881 163.056 305.729 161.868 304.889 160.356C304.073 158.844 303.665 157.116 303.665 155.172C303.665 153.204 304.097 151.464 304.961 149.952C305.825 148.44 307.013 147.264 308.525 146.424C310.037 145.56 311.753 145.128 313.673 145.128C315.617 145.128 317.333 145.56 318.821 146.424C320.333 147.264 321.509 148.44 322.349 149.952C323.213 151.464 323.657 153.204 323.681 155.172V162.516C323.681 164.46 323.249 166.2 322.385 167.736C321.521 169.296 320.345 170.52 318.857 171.408C317.369 172.32 315.665 172.776 313.745 172.776C311.849 172.776 310.181 172.416 308.741 171.696C307.301 171 306.113 170.04 305.177 168.816C304.913 168.528 304.793 168.216 304.817 167.88C304.865 167.544 305.045 167.268 305.357 167.052C305.669 166.836 306.017 166.764 306.401 166.836C306.785 166.908 307.085 167.088 307.301 167.376C307.997 168.24 308.885 168.936 309.965 169.464C311.069 169.992 312.341 170.256 313.781 170.256C315.125 170.256 316.337 169.932 317.417 169.284C318.497 168.636 319.349 167.724 319.973 166.548C320.621 165.372 320.945 163.992 320.945 162.408V160.752C320.225 162.12 319.205 163.2 317.885 163.992C316.589 164.784 315.089 165.18 313.385 165.18ZM313.673 162.66C315.089 162.66 316.337 162.348 317.417 161.724C318.521 161.076 319.385 160.188 320.009 159.06C320.633 157.932 320.945 156.636 320.945 155.172C320.945 153.708 320.633 152.412 320.009 151.284C319.385 150.132 318.521 149.244 317.417 148.62C316.337 147.972 315.089 147.648 313.673 147.648C312.257 147.648 310.997 147.972 309.893 148.62C308.789 149.244 307.925 150.132 307.301 151.284C306.677 152.412 306.365 153.708 306.365 155.172C306.365 156.636 306.677 157.932 307.301 159.06C307.925 160.188 308.789 161.076 309.893 161.724C310.997 162.348 312.257 162.66 313.673 162.66ZM337.64 165.216C335.936 165.216 334.412 164.868 333.068 164.172C331.724 163.452 330.656 162.408 329.864 161.04C329.096 159.672 328.712 158.004 328.712 156.036V146.676C328.712 146.292 328.844 145.968 329.108 145.704C329.372 145.44 329.696 145.308 330.08 145.308C330.488 145.308 330.824 145.44 331.088 145.704C331.352 145.968 331.484 146.292 331.484 146.676V156.036C331.484 158.244 332.096 159.888 333.32 160.968C334.544 162.048 336.08 162.588 337.928 162.588C339.104 162.588 340.16 162.36 341.096 161.904C342.056 161.448 342.812 160.824 343.364 160.032C343.916 159.24 344.192 158.34 344.192 157.332V146.676C344.192 146.268 344.312 145.944 344.552 145.704C344.816 145.44 345.152 145.308 345.56 145.308C345.968 145.308 346.304 145.44 346.568 145.704C346.832 145.944 346.964 146.268 346.964 146.676V163.596C346.964 164.028 346.832 164.376 346.568 164.64C346.304 164.88 345.968 165 345.56 165C345.152 165 344.816 164.88 344.552 164.64C344.312 164.376 344.192 164.028 344.192 163.596V162.372C343.4 163.26 342.44 163.956 341.312 164.46C340.184 164.964 338.96 165.216 337.64 165.216ZM362.363 165.18C360.419 165.18 358.691 164.76 357.179 163.92C355.691 163.056 354.515 161.868 353.651 160.356C352.811 158.844 352.391 157.116 352.391 155.172C352.391 153.204 352.787 151.476 353.579 149.988C354.395 148.476 355.511 147.288 356.927 146.424C358.343 145.56 359.975 145.128 361.823 145.128C363.647 145.128 365.231 145.548 366.575 146.388C367.943 147.204 368.999 148.344 369.743 149.808C370.487 151.272 370.859 152.94 370.859 154.812C370.859 155.196 370.739 155.508 370.499 155.748C370.259 155.964 369.947 156.072 369.563 156.072H355.019C355.163 157.368 355.559 158.52 356.207 159.528C356.855 160.512 357.707 161.292 358.763 161.868C359.819 162.42 361.019 162.696 362.363 162.696C363.227 162.696 364.091 162.552 364.955 162.264C365.843 161.952 366.551 161.568 367.079 161.112C367.343 160.896 367.643 160.788 367.979 160.788C368.315 160.764 368.603 160.848 368.843 161.04C369.155 161.328 369.311 161.64 369.311 161.976C369.335 162.312 369.203 162.6 368.915 162.84C368.123 163.512 367.115 164.076 365.891 164.532C364.667 164.964 363.491 165.18 362.363 165.18ZM361.823 147.612C359.975 147.612 358.451 148.188 357.251 149.34C356.051 150.468 355.331 151.944 355.091 153.768H368.267C368.075 151.944 367.403 150.468 366.251 149.34C365.123 148.188 363.647 147.612 361.823 147.612ZM375.909 165C375.069 165 374.649 164.58 374.649 163.74C374.649 163.332 374.745 163.032 374.937 162.84L386.709 147.828H375.765C374.925 147.828 374.505 147.408 374.505 146.568C374.505 145.728 374.925 145.308 375.765 145.308H389.121C389.961 145.308 390.381 145.728 390.381 146.568C390.381 146.928 390.309 147.204 390.165 147.396L378.393 162.48H389.265C390.105 162.48 390.525 162.9 390.525 163.74C390.525 164.58 390.105 165 389.265 165H375.909ZM418.849 165.36C416.905 165.36 415.081 164.988 413.377 164.244C411.697 163.5 410.209 162.468 408.913 161.148C407.641 159.804 406.645 158.268 405.925 156.54C405.205 154.788 404.845 152.916 404.845 150.924C404.845 148.956 405.193 147.108 405.889 145.38C406.609 143.628 407.605 142.092 408.877 140.772C410.173 139.452 411.661 138.42 413.341 137.676C415.045 136.908 416.881 136.524 418.849 136.524C420.577 136.524 422.149 136.776 423.565 137.28C424.981 137.784 426.349 138.588 427.669 139.692C427.981 139.932 428.113 140.244 428.065 140.628C428.017 140.988 427.837 141.24 427.525 141.384C427.453 141.672 427.225 141.852 426.841 141.924C426.481 141.996 426.121 141.888 425.761 141.6C424.825 140.784 423.805 140.184 422.701 139.8C421.597 139.392 420.313 139.188 418.849 139.188C417.289 139.188 415.825 139.5 414.457 140.124C413.113 140.748 411.925 141.6 410.893 142.68C409.861 143.76 409.045 145.008 408.445 146.424C407.869 147.84 407.581 149.34 407.581 150.924C407.581 152.556 407.869 154.08 408.445 155.496C409.045 156.912 409.861 158.16 410.893 159.24C411.925 160.32 413.113 161.172 414.457 161.796C415.825 162.396 417.289 162.696 418.849 162.696C421.441 162.696 423.805 161.856 425.941 160.176C426.373 159.84 426.829 159.792 427.309 160.032C427.813 160.272 428.065 160.68 428.065 161.256C428.065 161.64 427.933 161.976 427.669 162.264C426.445 163.392 425.077 164.196 423.565 164.676C422.053 165.132 420.481 165.36 418.849 165.36ZM432.331 165.288C432.043 165.288 431.797 165.186 431.593 164.982C431.389 164.778 431.287 164.532 431.287 164.244C431.287 163.944 431.389 163.692 431.593 163.488C431.809 163.284 432.055 163.182 432.331 163.182C432.619 163.182 432.865 163.29 433.069 163.506C433.273 163.71 433.375 163.956 433.375 164.244C433.375 164.52 433.273 164.766 433.069 164.982C432.877 165.186 432.631 165.288 432.331 165.288Z" fill="white"/>
<path d="M88.24 225.36C85.936 225.36 83.896 224.868 82.12 223.884C80.368 222.9 79.12 221.592 78.376 219.96C78.184 219.576 78.172 219.228 78.34 218.916C78.532 218.58 78.844 218.352 79.276 218.232C79.612 218.136 79.936 218.172 80.248 218.34C80.584 218.508 80.836 218.76 81.004 219.096C81.556 220.152 82.468 221.016 83.74 221.688C85.012 222.36 86.512 222.696 88.24 222.696C90.136 222.696 91.696 222.24 92.92 221.328C94.168 220.392 94.792 219.048 94.792 217.296C94.792 215.832 94.252 214.572 93.172 213.516C92.092 212.46 90.4 211.788 88.096 211.5C85.288 211.164 83.092 210.3 81.508 208.908C79.924 207.492 79.132 205.764 79.132 203.724C79.132 202.26 79.516 200.988 80.284 199.908C81.076 198.828 82.156 198 83.524 197.424C84.892 196.824 86.464 196.524 88.24 196.524C90.232 196.524 91.936 196.98 93.352 197.892C94.768 198.78 95.86 199.836 96.628 201.06C96.868 201.444 96.94 201.816 96.844 202.176C96.772 202.536 96.568 202.812 96.232 203.004C95.872 203.172 95.5 203.196 95.116 203.076C94.756 202.956 94.48 202.728 94.288 202.392C93.736 201.552 92.98 200.82 92.02 200.196C91.084 199.548 89.812 199.212 88.204 199.188C86.308 199.188 84.784 199.596 83.632 200.412C82.48 201.204 81.904 202.368 81.904 203.904C81.904 205.128 82.396 206.196 83.38 207.108C84.388 208.02 86.164 208.656 88.708 209.016C91.708 209.448 93.928 210.372 95.368 211.788C96.832 213.18 97.564 215.004 97.564 217.26C97.564 218.988 97.144 220.464 96.304 221.688C95.488 222.888 94.372 223.8 92.956 224.424C91.54 225.048 89.968 225.36 88.24 225.36ZM106.46 233.568C106.268 233.568 106.052 233.52 105.812 233.424C104.996 233.064 104.768 232.488 105.128 231.696L108.728 223.812L108.692 223.776L100.664 207.144C100.496 206.784 100.472 206.448 100.592 206.136C100.712 205.824 100.952 205.584 101.312 205.416C102.104 205.056 102.68 205.26 103.04 206.028L110.06 220.824L116.756 206.064C117.116 205.296 117.692 205.08 118.484 205.416C119.3 205.752 119.528 206.316 119.168 207.108L107.504 232.74C107.264 233.292 106.916 233.568 106.46 233.568ZM129.675 225.18C128.259 225.18 126.855 224.94 125.463 224.46C124.071 223.98 122.943 223.26 122.079 222.3C121.815 222.012 121.707 221.688 121.755 221.328C121.803 220.968 121.983 220.656 122.295 220.392C122.631 220.152 122.979 220.056 123.339 220.104C123.699 220.152 123.999 220.308 124.239 220.572C124.815 221.244 125.571 221.76 126.507 222.12C127.467 222.48 128.523 222.66 129.675 222.66C131.451 222.66 132.735 222.36 133.527 221.76C134.319 221.136 134.727 220.392 134.751 219.528C134.751 218.664 134.343 217.956 133.527 217.404C132.711 216.828 131.367 216.384 129.495 216.072C127.071 215.688 125.295 215.016 124.167 214.056C123.039 213.096 122.475 211.956 122.475 210.636C122.475 209.412 122.799 208.392 123.447 207.576C124.095 206.76 124.959 206.148 126.039 205.74C127.119 205.332 128.307 205.128 129.603 205.128C131.211 205.128 132.591 205.404 133.743 205.956C134.919 206.508 135.867 207.252 136.587 208.188C136.827 208.5 136.923 208.824 136.875 209.16C136.827 209.496 136.635 209.772 136.299 209.988C136.011 210.156 135.675 210.216 135.291 210.168C134.931 210.096 134.619 209.916 134.355 209.628C133.179 208.284 131.571 207.612 129.531 207.612C128.211 207.612 127.155 207.888 126.363 208.44C125.571 208.968 125.175 209.64 125.175 210.456C125.175 211.272 125.523 211.944 126.219 212.472C126.939 213 128.283 213.432 130.251 213.768C132.051 214.056 133.467 214.488 134.499 215.064C135.555 215.616 136.299 216.276 136.731 217.044C137.187 217.788 137.415 218.604 137.415 219.492C137.415 220.62 137.079 221.616 136.407 222.48C135.759 223.32 134.847 223.98 133.671 224.46C132.519 224.94 131.187 225.18 129.675 225.18ZM149.909 225C148.637 225 147.497 224.7 146.489 224.1C145.505 223.5 144.725 222.684 144.149 221.652C143.573 220.596 143.285 219.396 143.285 218.052V208.44H140.945C140.585 208.44 140.285 208.332 140.045 208.116C139.805 207.876 139.685 207.588 139.685 207.252C139.685 206.892 139.805 206.604 140.045 206.388C140.285 206.148 140.585 206.028 140.945 206.028H143.285V200.448C143.285 200.04 143.405 199.704 143.645 199.44C143.909 199.176 144.245 199.044 144.653 199.044C145.061 199.044 145.397 199.176 145.661 199.44C145.925 199.704 146.057 200.04 146.057 200.448V206.028H150.125C150.485 206.028 150.785 206.148 151.025 206.388C151.265 206.604 151.385 206.892 151.385 207.252C151.385 207.588 151.265 207.876 151.025 208.116C150.785 208.332 150.485 208.44 150.125 208.44H146.057V218.052C146.057 219.276 146.417 220.284 147.137 221.076C147.857 221.844 148.781 222.228 149.909 222.228H150.881C151.265 222.228 151.577 222.36 151.817 222.624C152.057 222.888 152.177 223.224 152.177 223.632C152.177 224.04 152.033 224.376 151.745 224.64C151.457 224.88 151.097 225 150.665 225H149.909ZM165.617 225.18C163.673 225.18 161.945 224.76 160.433 223.92C158.945 223.056 157.769 221.868 156.905 220.356C156.065 218.844 155.645 217.116 155.645 215.172C155.645 213.204 156.041 211.476 156.833 209.988C157.649 208.476 158.765 207.288 160.181 206.424C161.597 205.56 163.229 205.128 165.077 205.128C166.901 205.128 168.485 205.548 169.829 206.388C171.197 207.204 172.253 208.344 172.997 209.808C173.741 211.272 174.113 212.94 174.113 214.812C174.113 215.196 173.993 215.508 173.753 215.748C173.513 215.964 173.201 216.072 172.817 216.072H158.273C158.417 217.368 158.813 218.52 159.461 219.528C160.109 220.512 160.961 221.292 162.017 221.868C163.073 222.42 164.273 222.696 165.617 222.696C166.481 222.696 167.345 222.552 168.209 222.264C169.097 221.952 169.805 221.568 170.333 221.112C170.597 220.896 170.897 220.788 171.233 220.788C171.569 220.764 171.857 220.848 172.097 221.04C172.409 221.328 172.565 221.64 172.565 221.976C172.589 222.312 172.457 222.6 172.169 222.84C171.377 223.512 170.369 224.076 169.145 224.532C167.921 224.964 166.745 225.18 165.617 225.18ZM165.077 207.612C163.229 207.612 161.705 208.188 160.505 209.34C159.305 210.468 158.585 211.944 158.345 213.768H171.521C171.329 211.944 170.657 210.468 169.505 209.34C168.377 208.188 166.901 207.612 165.077 207.612ZM180.207 225C179.775 225 179.427 224.88 179.163 224.64C178.923 224.376 178.803 224.04 178.803 223.632V206.712C178.803 206.304 178.923 205.968 179.163 205.704C179.427 205.44 179.775 205.308 180.207 205.308C180.615 205.308 180.939 205.44 181.179 205.704C181.443 205.968 181.575 206.304 181.575 206.712V207.504C182.247 206.736 183.039 206.148 183.951 205.74C184.863 205.308 185.871 205.092 186.975 205.092C188.319 205.092 189.507 205.392 190.539 205.992C191.595 206.592 192.435 207.42 193.059 208.476C193.731 207.42 194.631 206.592 195.759 205.992C196.887 205.392 198.147 205.092 199.539 205.092C200.955 205.092 202.203 205.428 203.283 206.1C204.387 206.772 205.239 207.72 205.839 208.944C206.463 210.168 206.775 211.608 206.775 213.264V223.632C206.775 224.04 206.643 224.376 206.379 224.64C206.139 224.88 205.815 225 205.407 225C204.999 225 204.663 224.88 204.399 224.64C204.135 224.376 204.003 224.04 204.003 223.632V213.264C204.003 211.56 203.559 210.216 202.671 209.232C201.783 208.224 200.643 207.72 199.251 207.72C197.763 207.72 196.539 208.224 195.579 209.232C194.643 210.216 194.187 211.536 194.211 213.192V213.264V223.632C194.211 224.04 194.079 224.376 193.815 224.64C193.575 224.88 193.251 225 192.843 225C192.435 225 192.099 224.88 191.835 224.64C191.571 224.376 191.439 224.04 191.439 223.632V213.264C191.439 211.56 190.995 210.216 190.107 209.232C189.219 208.224 188.079 207.72 186.687 207.72C185.199 207.72 183.975 208.212 183.015 209.196C182.055 210.156 181.575 211.416 181.575 212.976V223.632C181.575 224.04 181.443 224.376 181.179 224.64C180.939 224.88 180.615 225 180.207 225ZM219.78 225.18C218.364 225.18 216.96 224.94 215.568 224.46C214.176 223.98 213.048 223.26 212.184 222.3C211.92 222.012 211.812 221.688 211.86 221.328C211.908 220.968 212.088 220.656 212.4 220.392C212.736 220.152 213.084 220.056 213.444 220.104C213.804 220.152 214.104 220.308 214.344 220.572C214.92 221.244 215.676 221.76 216.612 222.12C217.572 222.48 218.628 222.66 219.78 222.66C221.556 222.66 222.84 222.36 223.632 221.76C224.424 221.136 224.832 220.392 224.856 219.528C224.856 218.664 224.448 217.956 223.632 217.404C222.816 216.828 221.472 216.384 219.6 216.072C217.176 215.688 215.4 215.016 214.272 214.056C213.144 213.096 212.58 211.956 212.58 210.636C212.58 209.412 212.904 208.392 213.552 207.576C214.2 206.76 215.064 206.148 216.144 205.74C217.224 205.332 218.412 205.128 219.708 205.128C221.316 205.128 222.696 205.404 223.848 205.956C225.024 206.508 225.972 207.252 226.692 208.188C226.932 208.5 227.028 208.824 226.98 209.16C226.932 209.496 226.74 209.772 226.404 209.988C226.116 210.156 225.78 210.216 225.396 210.168C225.036 210.096 224.724 209.916 224.46 209.628C223.284 208.284 221.676 207.612 219.636 207.612C218.316 207.612 217.26 207.888 216.468 208.44C215.676 208.968 215.28 209.64 215.28 210.456C215.28 211.272 215.628 211.944 216.324 212.472C217.044 213 218.388 213.432 220.356 213.768C222.156 214.056 223.572 214.488 224.604 215.064C225.66 215.616 226.404 216.276 226.836 217.044C227.292 217.788 227.52 218.604 227.52 219.492C227.52 220.62 227.184 221.616 226.512 222.48C225.864 223.32 224.952 223.98 223.776 224.46C222.624 224.94 221.292 225.18 219.78 225.18ZM244.621 225C244.213 225 243.877 224.868 243.613 224.604C243.349 224.34 243.217 224.004 243.217 223.596V198.288C243.217 197.88 243.349 197.544 243.613 197.28C243.877 197.016 244.213 196.884 244.621 196.884H261.505C261.889 196.884 262.213 197.016 262.477 197.28C262.765 197.52 262.909 197.844 262.909 198.252C262.909 198.612 262.765 198.924 262.477 199.188C262.213 199.452 261.889 199.584 261.505 199.584H246.025V209.52H257.293C257.701 209.52 258.037 209.652 258.301 209.916C258.565 210.18 258.697 210.504 258.697 210.888C258.697 211.272 258.565 211.596 258.301 211.86C258.037 212.124 257.701 212.256 257.293 212.256H246.025V222.3H261.505C261.889 222.3 262.213 222.432 262.477 222.696C262.765 222.96 262.909 223.272 262.909 223.632C262.909 224.04 262.765 224.376 262.477 224.64C262.213 224.88 261.889 225 261.505 225H244.621ZM269.187 225C268.755 225 268.407 224.88 268.143 224.64C267.903 224.376 267.783 224.04 267.783 223.632V206.712C267.783 206.28 267.903 205.944 268.143 205.704C268.407 205.44 268.755 205.308 269.187 205.308C269.595 205.308 269.919 205.44 270.159 205.704C270.423 205.944 270.555 206.28 270.555 206.712V207.936C271.323 207.048 272.271 206.352 273.399 205.848C274.551 205.344 275.787 205.092 277.107 205.092C278.811 205.092 280.335 205.452 281.679 206.172C283.023 206.868 284.079 207.9 284.847 209.268C285.639 210.636 286.035 212.304 286.035 214.272V223.632C286.035 224.016 285.903 224.34 285.639 224.604C285.375 224.868 285.051 225 284.667 225C284.259 225 283.923 224.868 283.659 224.604C283.395 224.34 283.263 224.016 283.263 223.632V214.272C283.263 212.04 282.639 210.396 281.391 209.34C280.167 208.26 278.643 207.72 276.819 207.72C275.643 207.72 274.575 207.948 273.615 208.404C272.679 208.86 271.935 209.484 271.383 210.276C270.831 211.068 270.555 211.968 270.555 212.976V223.632C270.555 224.04 270.423 224.376 270.159 224.64C269.919 224.88 269.595 225 269.187 225ZM300.822 225.18C298.926 225.18 297.246 224.76 295.782 223.92C294.318 223.056 293.166 221.868 292.326 220.356C291.51 218.844 291.102 217.116 291.102 215.172C291.102 213.204 291.534 211.464 292.398 209.952C293.262 208.44 294.45 207.264 295.962 206.424C297.474 205.56 299.19 205.128 301.11 205.128C303.054 205.128 304.77 205.56 306.258 206.424C307.77 207.264 308.946 208.44 309.786 209.952C310.65 211.464 311.094 213.204 311.118 215.172V222.516C311.118 224.46 310.686 226.2 309.822 227.736C308.958 229.296 307.782 230.52 306.294 231.408C304.806 232.32 303.102 232.776 301.182 232.776C299.286 232.776 297.618 232.416 296.178 231.696C294.738 231 293.55 230.04 292.614 228.816C292.35 228.528 292.23 228.216 292.254 227.88C292.302 227.544 292.482 227.268 292.794 227.052C293.106 226.836 293.454 226.764 293.838 226.836C294.222 226.908 294.522 227.088 294.738 227.376C295.434 228.24 296.322 228.936 297.402 229.464C298.506 229.992 299.778 230.256 301.218 230.256C302.562 230.256 303.774 229.932 304.854 229.284C305.934 228.636 306.786 227.724 307.41 226.548C308.058 225.372 308.382 223.992 308.382 222.408V220.752C307.662 222.12 306.642 223.2 305.322 223.992C304.026 224.784 302.526 225.18 300.822 225.18ZM301.11 222.66C302.526 222.66 303.774 222.348 304.854 221.724C305.958 221.076 306.822 220.188 307.446 219.06C308.07 217.932 308.382 216.636 308.382 215.172C308.382 213.708 308.07 212.412 307.446 211.284C306.822 210.132 305.958 209.244 304.854 208.62C303.774 207.972 302.526 207.648 301.11 207.648C299.694 207.648 298.434 207.972 297.33 208.62C296.226 209.244 295.362 210.132 294.738 211.284C294.114 212.412 293.802 213.708 293.802 215.172C293.802 216.636 294.114 217.932 294.738 219.06C295.362 220.188 296.226 221.076 297.33 221.724C298.434 222.348 299.694 222.66 301.11 222.66ZM318.49 225C318.058 225 317.71 224.88 317.446 224.64C317.206 224.376 317.086 224.028 317.086 223.596V206.712C317.086 206.28 317.206 205.944 317.446 205.704C317.71 205.44 318.058 205.308 318.49 205.308C318.898 205.308 319.222 205.44 319.462 205.704C319.726 205.944 319.858 206.28 319.858 206.712V223.596C319.858 224.028 319.726 224.376 319.462 224.64C319.222 224.88 318.898 225 318.49 225ZM318.454 201.564C317.926 201.564 317.47 201.372 317.086 200.988C316.702 200.604 316.51 200.136 316.51 199.584C316.51 198.984 316.702 198.516 317.086 198.18C317.494 197.82 317.962 197.64 318.49 197.64C318.994 197.64 319.438 197.82 319.822 198.18C320.23 198.516 320.434 198.984 320.434 199.584C320.434 200.136 320.242 200.604 319.858 200.988C319.474 201.372 319.006 201.564 318.454 201.564ZM328.32 225C327.888 225 327.54 224.88 327.276 224.64C327.036 224.376 326.916 224.04 326.916 223.632V206.712C326.916 206.28 327.036 205.944 327.276 205.704C327.54 205.44 327.888 205.308 328.32 205.308C328.728 205.308 329.052 205.44 329.292 205.704C329.556 205.944 329.688 206.28 329.688 206.712V207.936C330.456 207.048 331.404 206.352 332.532 205.848C333.684 205.344 334.92 205.092 336.24 205.092C337.944 205.092 339.468 205.452 340.812 206.172C342.156 206.868 343.212 207.9 343.98 209.268C344.772 210.636 345.168 212.304 345.168 214.272V223.632C345.168 224.016 345.036 224.34 344.772 224.604C344.508 224.868 344.184 225 343.8 225C343.392 225 343.056 224.868 342.792 224.604C342.528 224.34 342.396 224.016 342.396 223.632V214.272C342.396 212.04 341.772 210.396 340.524 209.34C339.3 208.26 337.776 207.72 335.952 207.72C334.776 207.72 333.708 207.948 332.748 208.404C331.812 208.86 331.068 209.484 330.516 210.276C329.964 211.068 329.688 211.968 329.688 212.976V223.632C329.688 224.04 329.556 224.376 329.292 224.64C329.052 224.88 328.728 225 328.32 225ZM360.207 225.18C358.263 225.18 356.535 224.76 355.023 223.92C353.535 223.056 352.359 221.868 351.495 220.356C350.655 218.844 350.235 217.116 350.235 215.172C350.235 213.204 350.631 211.476 351.423 209.988C352.239 208.476 353.355 207.288 354.771 206.424C356.187 205.56 357.819 205.128 359.667 205.128C361.491 205.128 363.075 205.548 364.419 206.388C365.787 207.204 366.843 208.344 367.587 209.808C368.331 211.272 368.703 212.94 368.703 214.812C368.703 215.196 368.583 215.508 368.343 215.748C368.103 215.964 367.791 216.072 367.407 216.072H352.863C353.007 217.368 353.403 218.52 354.051 219.528C354.699 220.512 355.551 221.292 356.607 221.868C357.663 222.42 358.863 222.696 360.207 222.696C361.071 222.696 361.935 222.552 362.799 222.264C363.687 221.952 364.395 221.568 364.923 221.112C365.187 220.896 365.487 220.788 365.823 220.788C366.159 220.764 366.447 220.848 366.687 221.04C366.999 221.328 367.155 221.64 367.155 221.976C367.179 222.312 367.047 222.6 366.759 222.84C365.967 223.512 364.959 224.076 363.735 224.532C362.511 224.964 361.335 225.18 360.207 225.18ZM359.667 207.612C357.819 207.612 356.295 208.188 355.095 209.34C353.895 210.468 353.175 211.944 352.935 213.768H366.111C365.919 211.944 365.247 210.468 364.095 209.34C362.967 208.188 361.491 207.612 359.667 207.612ZM381.617 225.18C379.673 225.18 377.945 224.76 376.433 223.92C374.945 223.056 373.769 221.868 372.905 220.356C372.065 218.844 371.645 217.116 371.645 215.172C371.645 213.204 372.041 211.476 372.833 209.988C373.649 208.476 374.765 207.288 376.181 206.424C377.597 205.56 379.229 205.128 381.077 205.128C382.901 205.128 384.485 205.548 385.829 206.388C387.197 207.204 388.253 208.344 388.997 209.808C389.741 211.272 390.113 212.94 390.113 214.812C390.113 215.196 389.993 215.508 389.753 215.748C389.513 215.964 389.201 216.072 388.817 216.072H374.273C374.417 217.368 374.813 218.52 375.461 219.528C376.109 220.512 376.961 221.292 378.017 221.868C379.073 222.42 380.273 222.696 381.617 222.696C382.481 222.696 383.345 222.552 384.209 222.264C385.097 221.952 385.805 221.568 386.333 221.112C386.597 220.896 386.897 220.788 387.233 220.788C387.569 220.764 387.857 220.848 388.097 221.04C388.409 221.328 388.565 221.64 388.565 221.976C388.589 222.312 388.457 222.6 388.169 222.84C387.377 223.512 386.369 224.076 385.145 224.532C383.921 224.964 382.745 225.18 381.617 225.18ZM381.077 207.612C379.229 207.612 377.705 208.188 376.505 209.34C375.305 210.468 374.585 211.944 374.345 213.768H387.521C387.329 211.944 386.657 210.468 385.505 209.34C384.377 208.188 382.901 207.612 381.077 207.612ZM396.171 225C395.259 225 394.803 224.544 394.803 223.632V206.676C394.803 205.764 395.259 205.308 396.171 205.308C397.083 205.308 397.539 205.764 397.539 206.676V208.224C398.259 207.264 399.147 206.508 400.203 205.956C401.259 205.38 402.423 205.092 403.695 205.092C404.799 205.092 405.651 205.248 406.251 205.56C406.851 205.872 407.079 206.328 406.935 206.928C406.815 207.48 406.527 207.768 406.071 207.792C405.639 207.792 405.123 207.768 404.523 207.72C403.179 207.6 401.979 207.744 400.923 208.152C399.891 208.536 399.063 209.136 398.439 209.952C397.839 210.768 397.539 211.74 397.539 212.868V223.632C397.539 224.544 397.083 225 396.171 225Z" fill="white"/>
<line x1="19.9977" y1="254" x2="462.998" y2="253" stroke="white" stroke-width="2"/>
<path d="M167.004 340C166.596 340 166.26 339.868 165.996 339.604C165.732 339.34 165.6 339.004 165.6 338.596V313.288C165.6 312.88 165.732 312.544 165.996 312.28C166.26 312.016 166.596 311.884 167.004 311.884H174.204C175.98 311.884 177.552 312.28 178.92 313.072C180.288 313.84 181.356 314.908 182.124 316.276C182.892 317.644 183.276 319.228 183.276 321.028C183.276 322.78 182.892 324.34 182.124 325.708C181.356 327.052 180.288 328.12 178.92 328.912C177.552 329.68 175.98 330.064 174.204 330.064H168.408V338.596C168.408 339.004 168.276 339.34 168.012 339.604C167.748 339.868 167.412 340 167.004 340ZM168.408 327.364H174.204C175.428 327.364 176.52 327.1 177.48 326.572C178.44 326.02 179.184 325.264 179.712 324.304C180.264 323.344 180.54 322.252 180.54 321.028C180.54 319.756 180.264 318.64 179.712 317.68C179.184 316.72 178.44 315.964 177.48 315.412C176.52 314.86 175.428 314.584 174.204 314.584H168.408V327.364ZM195.544 340.18C193.624 340.18 191.908 339.748 190.396 338.884C188.884 338.02 187.696 336.832 186.832 335.32C185.968 333.808 185.536 332.092 185.536 330.172C185.536 328.228 185.968 326.5 186.832 324.988C187.696 323.476 188.884 322.288 190.396 321.424C191.908 320.56 193.624 320.128 195.544 320.128C197.464 320.128 199.168 320.56 200.656 321.424C202.168 322.288 203.356 323.476 204.22 324.988C205.084 326.5 205.528 328.228 205.552 330.172C205.552 332.092 205.108 333.808 204.22 335.32C203.356 336.832 202.168 338.02 200.656 338.884C199.168 339.748 197.464 340.18 195.544 340.18ZM195.544 337.66C196.936 337.66 198.184 337.336 199.288 336.688C200.392 336.04 201.256 335.152 201.88 334.024C202.504 332.896 202.816 331.612 202.816 330.172C202.816 328.732 202.504 327.448 201.88 326.32C201.256 325.168 200.392 324.268 199.288 323.62C198.184 322.972 196.936 322.648 195.544 322.648C194.152 322.648 192.904 322.972 191.8 323.62C190.696 324.268 189.82 325.168 189.172 326.32C188.548 327.448 188.236 328.732 188.236 330.172C188.236 331.612 188.548 332.896 189.172 334.024C189.82 335.152 190.696 336.04 191.8 336.688C192.904 337.336 194.152 337.66 195.544 337.66ZM212.311 340C211.399 340 210.943 339.544 210.943 338.632V321.676C210.943 320.764 211.399 320.308 212.311 320.308C213.223 320.308 213.679 320.764 213.679 321.676V323.224C214.399 322.264 215.287 321.508 216.343 320.956C217.399 320.38 218.563 320.092 219.835 320.092C220.939 320.092 221.791 320.248 222.391 320.56C222.991 320.872 223.219 321.328 223.075 321.928C222.955 322.48 222.667 322.768 222.211 322.792C221.779 322.792 221.263 322.768 220.663 322.72C219.319 322.6 218.119 322.744 217.063 323.152C216.031 323.536 215.203 324.136 214.579 324.952C213.979 325.768 213.679 326.74 213.679 327.868V338.632C213.679 339.544 213.223 340 212.311 340ZM235.135 340C233.863 340 232.723 339.7 231.715 339.1C230.731 338.5 229.951 337.684 229.375 336.652C228.799 335.596 228.511 334.396 228.511 333.052V323.44H226.171C225.811 323.44 225.511 323.332 225.271 323.116C225.031 322.876 224.911 322.588 224.911 322.252C224.911 321.892 225.031 321.604 225.271 321.388C225.511 321.148 225.811 321.028 226.171 321.028H228.511V315.448C228.511 315.04 228.631 314.704 228.871 314.44C229.135 314.176 229.471 314.044 229.879 314.044C230.287 314.044 230.623 314.176 230.887 314.44C231.151 314.704 231.283 315.04 231.283 315.448V321.028H235.351C235.711 321.028 236.011 321.148 236.251 321.388C236.491 321.604 236.611 321.892 236.611 322.252C236.611 322.588 236.491 322.876 236.251 323.116C236.011 323.332 235.711 323.44 235.351 323.44H231.283V333.052C231.283 334.276 231.643 335.284 232.363 336.076C233.083 336.844 234.007 337.228 235.135 337.228H236.107C236.491 337.228 236.803 337.36 237.043 337.624C237.283 337.888 237.403 338.224 237.403 338.632C237.403 339.04 237.259 339.376 236.971 339.64C236.683 339.88 236.323 340 235.891 340H235.135ZM244.364 340C244.004 340 243.692 339.88 243.428 339.64C243.164 339.376 243.032 339.028 243.032 338.596V323.44H240.728C240.344 323.44 240.032 323.332 239.792 323.116C239.576 322.876 239.468 322.588 239.468 322.252C239.468 321.892 239.576 321.604 239.792 321.388C240.032 321.148 240.344 321.028 240.728 321.028H243.032V320.344C243.032 317.824 243.68 315.784 244.976 314.224C246.272 312.664 248.144 311.884 250.592 311.884C251 311.884 251.336 312.004 251.6 312.244C251.864 312.484 251.996 312.784 251.996 313.144C251.996 313.504 251.864 313.804 251.6 314.044C251.336 314.284 251 314.404 250.592 314.404C248.96 314.404 247.748 314.956 246.956 316.06C246.188 317.14 245.804 318.52 245.804 320.2V321.028H250.124C250.508 321.028 250.808 321.148 251.024 321.388C251.264 321.604 251.384 321.892 251.384 322.252C251.384 322.588 251.264 322.876 251.024 323.116C250.808 323.332 250.508 323.44 250.124 323.44H245.804V338.596C245.804 339.028 245.672 339.376 245.408 339.64C245.168 339.88 244.82 340 244.364 340ZM263.36 340.18C261.44 340.18 259.724 339.748 258.212 338.884C256.7 338.02 255.512 336.832 254.648 335.32C253.784 333.808 253.352 332.092 253.352 330.172C253.352 328.228 253.784 326.5 254.648 324.988C255.512 323.476 256.7 322.288 258.212 321.424C259.724 320.56 261.44 320.128 263.36 320.128C265.28 320.128 266.984 320.56 268.472 321.424C269.984 322.288 271.172 323.476 272.036 324.988C272.9 326.5 273.344 328.228 273.368 330.172C273.368 332.092 272.924 333.808 272.036 335.32C271.172 336.832 269.984 338.02 268.472 338.884C266.984 339.748 265.28 340.18 263.36 340.18ZM263.36 337.66C264.752 337.66 266 337.336 267.104 336.688C268.208 336.04 269.072 335.152 269.696 334.024C270.32 332.896 270.632 331.612 270.632 330.172C270.632 328.732 270.32 327.448 269.696 326.32C269.072 325.168 268.208 324.268 267.104 323.62C266 322.972 264.752 322.648 263.36 322.648C261.968 322.648 260.72 322.972 259.616 323.62C258.512 324.268 257.636 325.168 256.988 326.32C256.364 327.448 256.052 328.732 256.052 330.172C256.052 331.612 256.364 332.896 256.988 334.024C257.636 335.152 258.512 336.04 259.616 336.688C260.72 337.336 261.968 337.66 263.36 337.66ZM283.008 340C281.568 340 280.38 339.424 279.444 338.272C278.508 337.096 278.04 335.596 278.04 333.772V313.252C278.04 312.844 278.16 312.52 278.4 312.28C278.664 312.016 279 311.884 279.408 311.884C279.816 311.884 280.14 312.016 280.38 312.28C280.644 312.52 280.776 312.844 280.776 313.252V333.772C280.776 334.804 280.98 335.644 281.388 336.292C281.82 336.94 282.36 337.264 283.008 337.264H283.908C284.268 337.264 284.556 337.396 284.772 337.66C284.988 337.9 285.096 338.224 285.096 338.632C285.096 339.04 284.94 339.376 284.628 339.64C284.34 339.88 283.956 340 283.476 340H283.008ZM290.9 340C290.468 340 290.12 339.88 289.856 339.64C289.616 339.376 289.496 339.028 289.496 338.596V321.712C289.496 321.28 289.616 320.944 289.856 320.704C290.12 320.44 290.468 320.308 290.9 320.308C291.308 320.308 291.632 320.44 291.872 320.704C292.136 320.944 292.268 321.28 292.268 321.712V338.596C292.268 339.028 292.136 339.376 291.872 339.64C291.632 339.88 291.308 340 290.9 340ZM290.864 316.564C290.336 316.564 289.88 316.372 289.496 315.988C289.112 315.604 288.92 315.136 288.92 314.584C288.92 313.984 289.112 313.516 289.496 313.18C289.904 312.82 290.372 312.64 290.9 312.64C291.404 312.64 291.848 312.82 292.232 313.18C292.64 313.516 292.844 313.984 292.844 314.584C292.844 315.136 292.652 315.604 292.268 315.988C291.884 316.372 291.416 316.564 290.864 316.564ZM308.29 340.18C306.37 340.18 304.654 339.748 303.142 338.884C301.63 338.02 300.442 336.832 299.578 335.32C298.714 333.808 298.282 332.092 298.282 330.172C298.282 328.228 298.714 326.5 299.578 324.988C300.442 323.476 301.63 322.288 303.142 321.424C304.654 320.56 306.37 320.128 308.29 320.128C310.21 320.128 311.914 320.56 313.402 321.424C314.914 322.288 316.102 323.476 316.966 324.988C317.83 326.5 318.274 328.228 318.298 330.172C318.298 332.092 317.854 333.808 316.966 335.32C316.102 336.832 314.914 338.02 313.402 338.884C311.914 339.748 310.21 340.18 308.29 340.18ZM308.29 337.66C309.682 337.66 310.93 337.336 312.034 336.688C313.138 336.04 314.002 335.152 314.626 334.024C315.25 332.896 315.562 331.612 315.562 330.172C315.562 328.732 315.25 327.448 314.626 326.32C314.002 325.168 313.138 324.268 312.034 323.62C310.93 322.972 309.682 322.648 308.29 322.648C306.898 322.648 305.65 322.972 304.546 323.62C303.442 324.268 302.566 325.168 301.918 326.32C301.294 327.448 300.982 328.732 300.982 330.172C300.982 331.612 301.294 332.896 301.918 334.024C302.566 335.152 303.442 336.04 304.546 336.688C305.65 337.336 306.898 337.66 308.29 337.66Z" fill="white"/>
</svg>
